<svg id="Layer_1" data-name="Layer 1" xmlns="http://www.w3.org/2000/svg" viewBox="0 0 256 256"><defs><style>.cls-1{fill:#fefefd;}.cls-2{fill:#44997a;}.cls-3{fill:#eb8c24;}.cls-4{fill:#fdc112;}.cls-5{fill:#42c7f2;}.cls-6{fill:#f5ea61;}.cls-7{fill:#fdd759;}</style></defs><path class="cls-1" d="M255.92,128.55q0,61.94.08,123.86c0,2.94-.56,3.58-3.55,3.58q-124.38-.17-248.76,0C.3,256,0,254.89,0,252.06Q.12,128,0,3.85C0,.77.66,0,3.8,0Q127.93.18,252.05,0c3.64,0,4,1,3.95,4.2Q255.82,66.38,255.92,128.55Zm-42.8-41.92c-21.25,12.2-42.65,24.15-63.69,36.7-10,5.94-15.83,15.11-15.89,27.08-.11,23.88,0,47.75.07,71.63-.05,5.14-.12,10.27-.13,15.41,0,13.94.69,14.46,13,7.44q37.77-21.49,75.34-43.36c11.26-6.6,17.24-16.7,17.26-29.94q.06-43.76,0-87.51a38,38,0,0,0-.87-7.86c-.62-2.93-1.51-3.6-4.22-2C227.12,78.49,220.09,82.52,213.12,86.63ZM122.85,221.94c0-24.53.13-49.07,0-73.6-.07-8.8-4.44-15.72-11-21.46-5.92-5.22-13-8.51-19.73-12.4C75.78,105,59.35,95.76,43,86.41c-4.8-2.89-9.56-5.87-14.42-8.66C18.6,72,17.91,72.39,17.89,84q-.11,43.74,0,87.46c0,13.46,6.09,23.6,17.5,30.29,25,14.65,50.15,29,75.24,43.49a37.22,37.22,0,0,0,9.19,3.66c2.24.59,3.46,0,3.41-2.62C123,238.15,123,230.05,122.85,221.94ZM48.45,77c1.09.74,2.13,1.55,3.26,2.21q29,16.74,58,33.45a58.61,58.61,0,0,1,13.76,10.49c4.84,5.16,4.92,5.27,9.5.24,7.21-7.88,16.8-12.22,25.73-17.51,16.49-9.75,33.07-19.34,49.62-29,7.22-4,14.41-8.12,21.68-12.07,2.28-1.24,1.57-2.45.37-3.85-3.18-3.72-7.3-6.2-11.48-8.6C195.62,39,172.24,25.78,149.11,12.15c-13.53-8-26.71-8.58-40.38-.62-24.2,14.1-48.51,28-72.76,42a35.84,35.84,0,0,0-9.34,7.36c-1.42,1.63-1.85,2.84.6,4.16C34.37,68.92,41.39,73,48.45,77Z"/><path class="cls-2" d="M208.33,76.86c-16.55,9.66-33.13,19.25-49.62,29-8.93,5.29-18.52,9.63-25.73,17.51-4.58,5-4.66,4.92-9.5-.24a58.61,58.61,0,0,0-13.76-10.49q-29-16.71-58-33.45c-1.13-.66-2.17-1.47-3.26-2.21a23.36,23.36,0,0,1,7.35-6.57C75.69,58.91,95.51,47.27,115.55,36c8.68-4.87,17.84-4.53,26.53.41,19.25,10.95,38.42,22.07,57.63,33.1C203,71.47,206.15,73.6,208.33,76.86Z"/><path class="cls-3" d="M43,86.41C59.35,95.76,75.78,105,92.11,114.48c6.72,3.89,13.81,7.18,19.73,12.4,6.52,5.74,10.89,12.66,11,21.46.18,24.53,0,49.07,0,73.6-4.18.77-7.33-1.74-10.56-3.58-19-10.83-37.91-21.65-56.68-32.79-8.83-5.25-13.67-13.3-13.7-23.79-.07-22.19,0-44.37,0-66.56A30.73,30.73,0,0,1,43,86.41Z"/><path class="cls-4" d="M133.61,222c0-23.88-.18-47.75-.07-71.63.06-12,5.94-21.14,15.89-27.08,21-12.55,42.44-24.5,63.69-36.7,1.63,2.05,1.95,4.48,1.95,7,0,22.89.21,45.77-.11,68.65-.13,8.86-3.9,17-11.5,21.55-21,12.62-42.44,24.48-63.71,36.62A9.6,9.6,0,0,1,133.61,222Z"/><path class="cls-5" d="M208.33,76.86c-2.18-3.26-5.3-5.39-8.62-7.31-19.21-11-38.38-22.15-57.63-33.1-8.69-4.94-17.85-5.28-26.53-.41-20,11.23-39.86,22.87-59.75,34.37A23.36,23.36,0,0,0,48.45,77c-7.06-4-14.08-8.06-21.22-11.91-2.45-1.32-2-2.53-.6-4.16A35.84,35.84,0,0,1,36,53.55c24.25-14,48.56-27.92,72.76-42,13.67-8,26.85-7.35,40.38.62C172.24,25.78,195.62,39,218.9,52.34c4.18,2.4,8.3,4.88,11.48,8.6,1.2,1.4,1.91,2.61-.37,3.85C222.74,68.74,215.55,72.83,208.33,76.86Z"/><path class="cls-6" d="M133.61,222a9.6,9.6,0,0,0,6.14-1.6c21.27-12.14,42.72-24,63.71-36.62,7.6-4.56,11.37-12.69,11.5-21.55.32-22.88.11-45.76.11-68.65,0-2.51-.32-4.94-1.95-7,7-4.11,14-8.14,20.9-12.36,2.71-1.65,3.6-1,4.22,2a38,38,0,0,1,.87,7.86q0,43.76,0,87.51c0,13.24-6,23.34-17.26,29.94q-37.5,22-75.34,43.36c-12.34,7-13,6.5-13-7.44C133.49,232.31,133.56,227.18,133.61,222Z"/><path class="cls-7" d="M43,86.41a30.73,30.73,0,0,0-1.1,8.81c0,22.19,0,44.37,0,66.56,0,10.49,4.87,18.54,13.7,23.79,18.77,11.14,37.73,22,56.68,32.79,3.23,1.84,6.38,4.35,10.56,3.58.11,8.11.19,16.21.36,24.31.05,2.58-1.17,3.21-3.41,2.62a37.22,37.22,0,0,1-9.19-3.66c-25.09-14.48-50.25-28.84-75.24-43.49C24,195,17.87,184.89,17.87,171.43q0-43.73,0-87.46c0-11.58.71-11.93,10.65-6.22C33.4,80.54,38.16,83.52,43,86.41Z"/></svg>
